<?xml version="1.0" standalone="no"?><!DOCTYPE svg PUBLIC "-//W3C//DTD SVG 1.1//EN" "http://www.w3.org/Graphics/SVG/1.1/DTD/svg11.dtd"><svg t="1539575505104" class="icon" style="" viewBox="0 0 1024 1024" version="1.1" xmlns="http://www.w3.org/2000/svg" p-id="3044" xmlns:xlink="http://www.w3.org/1999/xlink" width="200" height="200"><defs><style type="text/css"></style></defs><path d="M896 1024H128c-70.4 0-128-57.6-128-128V128C0 57.6 57.6 0 128 0h768c70.4 0 128 57.6 128 128v768c0 70.4-57.6 128-128 128z" p-id="3045" fill="#ff6600"></path><path d="M908.8 256c-12.8-12.8-32-12.8-44.8 0l-441.6 448-256-256c-19.2-25.6-38.4-25.6-51.2-6.4-12.8 12.8-12.8 38.4 0 51.2l281.6 281.6 6.4 6.4h32s6.4 0 6.4-6.4l460.8-467.2c19.2-19.2 19.2-38.4 6.4-51.2z m0 0" p-id="3046" fill="#ff6600"></path></svg>